%FSTAX23Y23*%
%MOIN*%
%SFA1B1*%

%IPPOS*%
%ADD15C,0.002700*%
%ADD16R,0.040850X0.020950*%
%ADD17R,0.023620X0.045280*%
%ADD18R,0.047240X0.057090*%
%ADD19R,0.053150X0.057090*%
%ADD20R,0.051180X0.057090*%
%LNusb-1*%
%LPD*%
G54D15*
X01252Y01211D02*
D01*
D01*
G75*
G03X01251Y01212I-00001J0D01*
G74*G01*
Y018D02*
D01*
D01*
G75*
G03X01252Y01802I0J00001D01*
G74*G01*
X01521D02*
D01*
D01*
G75*
G03X01522Y018I00001J0D01*
G74*G01*
X0172Y01798D02*
D01*
D01*
G75*
G03X01721Y01799I-0J00001D01*
G74*G01*
X01947Y01783D02*
D01*
D01*
G75*
G03X01946Y0178I0J-00001D01*
G74*G01*
X0196Y01692D02*
D01*
D01*
G75*
G03X01962Y0169I00001J0D01*
G74*G01*
X02157Y01693D02*
D01*
D01*
G75*
G03X02157Y01695I-00002J00001D01*
G74*G01*
Y01335D02*
D01*
D01*
G75*
G03X02157Y01335I-00002J0D01*
G74*G01*
X01962Y01338D02*
D01*
D01*
G75*
G03X0196Y01336I0J-00001D01*
G74*G01*
X01955Y01242D02*
D01*
D01*
G75*
G03X01957Y0124I00001J-0D01*
G74*G01*
X01721Y01209D02*
D01*
D01*
G75*
G03X0172Y0121I-00001J-0D01*
G74*G01*
X01522Y01212D02*
D01*
D01*
G75*
G03X01521Y01211I0J-00001D01*
G74*G01*
X01583Y01599D02*
X01585Y01598D01*
X01669D02*
X0167Y01599D01*
X01583Y01407D02*
X01585Y01409D01*
X01669D02*
X0167Y01407D01*
X02154Y0169D02*
X02157Y01693D01*
X01962Y0169D02*
X02154D01*
X02154Y01338D02*
X02157Y01335D01*
X02157Y01335D02*
Y01335D01*
X01962Y01338D02*
X02154D01*
X01776Y01125D02*
X01792Y01121D01*
X01761Y01137D02*
X01776Y01125D01*
X01751Y01153D02*
X01761Y01137D01*
X01748Y01166D02*
X01751Y01153D01*
X01748Y01166D02*
Y01214D01*
X02099*
Y01122D02*
Y01214D01*
X02096Y01122D02*
X02099Y01122D01*
X02087Y01122D02*
X02096Y01122D01*
X02074Y01122D02*
X02087Y01122D01*
X02056Y01122D02*
X02074Y01122D01*
X02035Y01122D02*
X02056Y01122D01*
X02012Y01122D02*
X02035Y01122D01*
X01987Y01122D02*
X02012Y01122D01*
X0196Y01122D02*
X01987Y01122D01*
X01933Y01122D02*
X0196Y01122D01*
X01907Y01121D02*
X01933Y01122D01*
X01882Y01121D02*
X01907Y01121D01*
X01858Y01121D02*
X01882Y01121D01*
X01837Y01121D02*
X01858Y01121D01*
X0182Y01121D02*
X01837Y01121D01*
X01806Y01121D02*
X0182Y01121D01*
X018Y01121D02*
X01806Y01121D01*
X01792Y01121D02*
X018D01*
X01295Y01163D02*
X01311Y01152D01*
X01327Y01148*
X01447*
X01463Y01152*
X0148Y01163*
X01491Y0118*
X01496Y01196*
Y01213*
X01279D02*
X01496D01*
X01279Y01196D02*
Y01213D01*
Y01196D02*
X01283Y0118D01*
X01295Y01163*
X01279Y01801D02*
X01496D01*
Y01843*
X01491Y01859D02*
X01496Y01843D01*
X0148Y01876D02*
X01491Y01859D01*
X01463Y01887D02*
X0148Y01876D01*
X01447Y01891D02*
X01463Y01887D01*
X01327Y01891D02*
X01447D01*
X01311Y01887D02*
X01327Y01891D01*
X01295Y01876D02*
X01311Y01887D01*
X01283Y01859D02*
X01295Y01876D01*
X01279Y01843D02*
X01283Y01859D01*
X01279Y01801D02*
Y01843D01*
X01748Y0181D02*
X02099D01*
Y01902*
X02096Y01902D02*
X02099Y01902D01*
X02087Y01902D02*
X02096Y01902D01*
X02074Y01902D02*
X02087Y01902D01*
X02056Y01902D02*
X02074Y01902D01*
X02035Y01902D02*
X02056Y01902D01*
X02012Y01902D02*
X02035Y01902D01*
X01987Y01903D02*
X02012Y01902D01*
X0196Y01903D02*
X01987Y01903D01*
X01933Y01903D02*
X0196Y01903D01*
X01907Y01903D02*
X01933Y01903D01*
X01882Y01903D02*
X01907Y01903D01*
X01858Y01903D02*
X01882Y01903D01*
X01837Y01903D02*
X01858Y01903D01*
X0182Y01903D02*
X01837Y01903D01*
X01806Y01903D02*
X0182Y01903D01*
X018Y01903D02*
X01806Y01903D01*
X01792Y01903D02*
X018D01*
X01776Y01899D02*
X01792Y01903D01*
X01761Y01887D02*
X01776Y01899D01*
X01751Y01872D02*
X01761Y01887D01*
X01748Y01858D02*
X01751Y01872D01*
X01748Y0181D02*
Y01858D01*
X01272Y01138D02*
X01292Y01124D01*
X01258Y01159D02*
X01272Y01138D01*
X01252Y01178D02*
X01258Y01159D01*
X01252Y01178D02*
Y01211D01*
X01229Y01212D02*
X01251D01*
X01213Y01217D02*
X01229Y01212D01*
X01195Y01228D02*
X01213Y01217D01*
X01184Y01246D02*
X01195Y01228D01*
X0118Y01261D02*
X01184Y01246D01*
X0118Y01261D02*
Y01752D01*
X01184Y01767*
X01195Y01785*
X01213Y01796*
X01229Y018*
X01251*
X01252Y01802D02*
Y01859D01*
X01258Y01878*
X01272Y01899*
X01292Y01913*
X01311Y01918*
X01462*
X01481Y01913*
X01501Y01899*
X01516Y01878*
X01521Y01859*
Y01802D02*
Y01859D01*
X01522Y018D02*
X01534D01*
X0155Y01796*
X01567Y01785*
X01579Y01767*
X01583Y01752*
Y01599D02*
Y01752D01*
X01585Y01598D02*
X01669D01*
X0167Y01599D02*
Y01749D01*
X01674Y01764*
X01685Y0178*
X017Y01792*
X01715Y01797*
X0172Y01798*
X01721Y01799D02*
Y01857D01*
X01722Y01868*
X01726Y01882*
X01733Y01896*
X01742Y01908*
X01753Y01919*
X01767Y01927*
X01783Y01932*
X01797Y01934*
X01805*
X01814Y01934*
X01832Y01934*
X01852Y01934*
X01876Y01934*
X01902Y01934*
X0193Y01934*
X01959Y01933*
X01987Y01933*
X02015Y01933*
X02042Y01933*
X02066Y01933*
X02088Y01932*
X02106Y01932*
X0212Y01932*
X02129Y01932*
X02131Y01932*
Y01783D02*
Y01932D01*
X01947Y01783D02*
X02131D01*
X01946Y0178D02*
X01947Y01779D01*
X01952Y01773*
X01956Y01764*
X01959Y01754*
X0196Y01746*
Y01692D02*
Y01746D01*
X02157Y01695D02*
Y01747D01*
X02607*
Y01282D02*
Y01747D01*
X02157Y01282D02*
X02607D01*
X02157D02*
Y01335D01*
X0196Y01261D02*
Y01336D01*
X01959Y01252D02*
X0196Y01261D01*
X01956Y01243D02*
X01959Y01252D01*
X01955Y01242D02*
X01956Y01243D01*
X01957Y0124D02*
X02131D01*
Y0109D02*
Y0124D01*
X02129Y0109D02*
X02131Y0109D01*
X0212Y0109D02*
X02129Y0109D01*
X02106Y0109D02*
X0212Y0109D01*
X02088Y0109D02*
X02106Y0109D01*
X02066Y0109D02*
X02088Y0109D01*
X02042Y0109D02*
X02066Y0109D01*
X02015Y0109D02*
X02042Y0109D01*
X01987Y01089D02*
X02015Y0109D01*
X01959Y01089D02*
X01987Y01089D01*
X0193Y01089D02*
X01959Y01089D01*
X01902Y01089D02*
X0193Y01089D01*
X01876Y01089D02*
X01902Y01089D01*
X01852Y01088D02*
X01876Y01089D01*
X01832Y01088D02*
X01852Y01088D01*
X01814Y01088D02*
X01832Y01088D01*
X01805Y01088D02*
X01814Y01088D01*
X01797Y01088D02*
X01805D01*
X01783Y0109D02*
X01797Y01088D01*
X01767Y01095D02*
X01783Y0109D01*
X01753Y01104D02*
X01767Y01095D01*
X01742Y01114D02*
X01753Y01104D01*
X01733Y01127D02*
X01742Y01114D01*
X01726Y0114D02*
X01733Y01127D01*
X01722Y01155D02*
X01726Y0114D01*
X01721Y01165D02*
X01722Y01155D01*
X01721Y01165D02*
Y01209D01*
X01715Y0121D02*
X0172Y0121D01*
X017Y01215D02*
X01715Y0121D01*
X01685Y01227D02*
X017Y01215D01*
X01674Y01244D02*
X01685Y01227D01*
X0167Y01259D02*
X01674Y01244D01*
X0167Y01259D02*
Y01407D01*
X01585Y01409D02*
X01669D01*
X01583Y01261D02*
Y01407D01*
X01579Y01246D02*
X01583Y01261D01*
X01567Y01228D02*
X01579Y01246D01*
X0155Y01217D02*
X01567Y01228D01*
X01534Y01212D02*
X0155Y01217D01*
X01522Y01212D02*
X01534D01*
X01521Y01178D02*
Y01211D01*
X01516Y01159D02*
X01521Y01178D01*
X01501Y01138D02*
X01516Y01159D01*
X01481Y01124D02*
X01501Y01138D01*
X01462Y01119D02*
X01481Y01124D01*
X01311Y01119D02*
X01462D01*
X01292Y01124D02*
X01311Y01119D01*
G54D16*
X0216Y01525D03*
X02073Y01487D03*
Y01562D03*
G54D17*
X01927Y0156D03*
X02002D03*
X01965Y01649D03*
X02002Y01469D03*
X01927D03*
X01965Y0138D03*
G54D18*
X01755Y0141D03*
X01834D03*
X01755Y01515D03*
X01834D03*
X01755Y0162D03*
X01834D03*
G54D19*
X01827Y01725D03*
X01762D03*
G54D20*
X01763Y01315D03*
X01826D03*
M02*