%FSTAX23Y23*%
%MOIN*%
%SFA1B1*%

%IPPOS*%
%ADD15C,0.002700*%
%ADD41C,0.002710*%
%ADD42C,0.002680*%
%ADD43C,0.005000*%
%LNusb-1*%
%LPD*%
G54D15*
X01252Y01211D02*
D01*
D01*
G75*
G03X01251Y01212I-00001J0D01*
G74*G01*
Y018D02*
D01*
D01*
G75*
G03X01252Y01802I0J00001D01*
G74*G01*
X01521D02*
D01*
D01*
G75*
G03X01522Y018I00001J0D01*
G74*G01*
X0172Y01798D02*
D01*
D01*
G75*
G03X01721Y01799I-0J00001D01*
G74*G01*
X01947Y01783D02*
D01*
D01*
G75*
G03X01946Y0178I0J-00001D01*
G74*G01*
X0196Y01692D02*
D01*
D01*
G75*
G03X01962Y0169I00001J0D01*
G74*G01*
X02157Y01693D02*
D01*
D01*
G75*
G03X02157Y01695I-00002J00001D01*
G74*G01*
Y01335D02*
D01*
D01*
G75*
G03X02157Y01335I-00002J0D01*
G74*G01*
X01962Y01338D02*
D01*
D01*
G75*
G03X0196Y01336I0J-00001D01*
G74*G01*
X01955Y01242D02*
D01*
D01*
G75*
G03X01957Y0124I00001J-0D01*
G74*G01*
X01721Y01209D02*
D01*
D01*
G75*
G03X0172Y0121I-00001J-0D01*
G74*G01*
X01522Y01212D02*
D01*
D01*
G75*
G03X01521Y01211I0J-00001D01*
G74*G01*
X01583Y01599D02*
X01585Y01598D01*
X01669D02*
X0167Y01599D01*
X01583Y01407D02*
X01585Y01409D01*
X01669D02*
X0167Y01407D01*
X02154Y0169D02*
X02157Y01693D01*
X01962Y0169D02*
X02154D01*
X02154Y01338D02*
X02157Y01335D01*
X02157Y01335D02*
Y01335D01*
X01962Y01338D02*
X02154D01*
X01776Y01125D02*
X01792Y01121D01*
X01761Y01137D02*
X01776Y01125D01*
X01751Y01153D02*
X01761Y01137D01*
X01748Y01166D02*
X01751Y01153D01*
X01748Y01166D02*
Y01214D01*
X02099*
Y01122D02*
Y01214D01*
X02096Y01122D02*
X02099Y01122D01*
X02087Y01122D02*
X02096Y01122D01*
X02074Y01122D02*
X02087Y01122D01*
X02056Y01122D02*
X02074Y01122D01*
X02035Y01122D02*
X02056Y01122D01*
X02012Y01122D02*
X02035Y01122D01*
X01987Y01122D02*
X02012Y01122D01*
X0196Y01122D02*
X01987Y01122D01*
X01933Y01122D02*
X0196Y01122D01*
X01907Y01121D02*
X01933Y01122D01*
X01882Y01121D02*
X01907Y01121D01*
X01858Y01121D02*
X01882Y01121D01*
X01837Y01121D02*
X01858Y01121D01*
X0182Y01121D02*
X01837Y01121D01*
X01806Y01121D02*
X0182Y01121D01*
X018Y01121D02*
X01806Y01121D01*
X01792Y01121D02*
X018D01*
X01295Y01163D02*
X01311Y01152D01*
X01327Y01148*
X01447*
X01463Y01152*
X0148Y01163*
X01491Y0118*
X01496Y01196*
Y01213*
X01279D02*
X01496D01*
X01279Y01196D02*
Y01213D01*
Y01196D02*
X01283Y0118D01*
X01295Y01163*
X01279Y01801D02*
X01496D01*
Y01843*
X01491Y01859D02*
X01496Y01843D01*
X0148Y01876D02*
X01491Y01859D01*
X01463Y01887D02*
X0148Y01876D01*
X01447Y01891D02*
X01463Y01887D01*
X01327Y01891D02*
X01447D01*
X01311Y01887D02*
X01327Y01891D01*
X01295Y01876D02*
X01311Y01887D01*
X01283Y01859D02*
X01295Y01876D01*
X01279Y01843D02*
X01283Y01859D01*
X01279Y01801D02*
Y01843D01*
X01748Y0181D02*
X02099D01*
Y01902*
X02096Y01902D02*
X02099Y01902D01*
X02087Y01902D02*
X02096Y01902D01*
X02074Y01902D02*
X02087Y01902D01*
X02056Y01902D02*
X02074Y01902D01*
X02035Y01902D02*
X02056Y01902D01*
X02012Y01902D02*
X02035Y01902D01*
X01987Y01903D02*
X02012Y01902D01*
X0196Y01903D02*
X01987Y01903D01*
X01933Y01903D02*
X0196Y01903D01*
X01907Y01903D02*
X01933Y01903D01*
X01882Y01903D02*
X01907Y01903D01*
X01858Y01903D02*
X01882Y01903D01*
X01837Y01903D02*
X01858Y01903D01*
X0182Y01903D02*
X01837Y01903D01*
X01806Y01903D02*
X0182Y01903D01*
X018Y01903D02*
X01806Y01903D01*
X01792Y01903D02*
X018D01*
X01776Y01899D02*
X01792Y01903D01*
X01761Y01887D02*
X01776Y01899D01*
X01751Y01872D02*
X01761Y01887D01*
X01748Y01858D02*
X01751Y01872D01*
X01748Y0181D02*
Y01858D01*
X01272Y01138D02*
X01292Y01124D01*
X01258Y01159D02*
X01272Y01138D01*
X01252Y01178D02*
X01258Y01159D01*
X01252Y01178D02*
Y01211D01*
X01229Y01212D02*
X01251D01*
X01213Y01217D02*
X01229Y01212D01*
X01195Y01228D02*
X01213Y01217D01*
X01184Y01246D02*
X01195Y01228D01*
X0118Y01261D02*
X01184Y01246D01*
X0118Y01261D02*
Y01752D01*
X01184Y01767*
X01195Y01785*
X01213Y01796*
X01229Y018*
X01251*
X01252Y01802D02*
Y01859D01*
X01258Y01878*
X01272Y01899*
X01292Y01913*
X01311Y01918*
X01462*
X01481Y01913*
X01501Y01899*
X01516Y01878*
X01521Y01859*
Y01802D02*
Y01859D01*
X01522Y018D02*
X01534D01*
X0155Y01796*
X01567Y01785*
X01579Y01767*
X01583Y01752*
Y01599D02*
Y01752D01*
X01585Y01598D02*
X01669D01*
X0167Y01599D02*
Y01749D01*
X01674Y01764*
X01685Y0178*
X017Y01792*
X01715Y01797*
X0172Y01798*
X01721Y01799D02*
Y01857D01*
X01722Y01868*
X01726Y01882*
X01733Y01896*
X01742Y01908*
X01753Y01919*
X01767Y01927*
X01783Y01932*
X01797Y01934*
X01805*
X01814Y01934*
X01832Y01934*
X01852Y01934*
X01876Y01934*
X01902Y01934*
X0193Y01934*
X01959Y01933*
X01987Y01933*
X02015Y01933*
X02042Y01933*
X02066Y01933*
X02088Y01932*
X02106Y01932*
X0212Y01932*
X02129Y01932*
X02131Y01932*
Y01783D02*
Y01932D01*
X01947Y01783D02*
X02131D01*
X01946Y0178D02*
X01947Y01779D01*
X01952Y01773*
X01956Y01764*
X01959Y01754*
X0196Y01746*
Y01692D02*
Y01746D01*
X02157Y01695D02*
Y01747D01*
X02607*
Y01282D02*
Y01747D01*
X02157Y01282D02*
X02607D01*
X02157D02*
Y01335D01*
X0196Y01261D02*
Y01336D01*
X01959Y01252D02*
X0196Y01261D01*
X01956Y01243D02*
X01959Y01252D01*
X01955Y01242D02*
X01956Y01243D01*
X01957Y0124D02*
X02131D01*
Y0109D02*
Y0124D01*
X02129Y0109D02*
X02131Y0109D01*
X0212Y0109D02*
X02129Y0109D01*
X02106Y0109D02*
X0212Y0109D01*
X02088Y0109D02*
X02106Y0109D01*
X02066Y0109D02*
X02088Y0109D01*
X02042Y0109D02*
X02066Y0109D01*
X02015Y0109D02*
X02042Y0109D01*
X01987Y01089D02*
X02015Y0109D01*
X01959Y01089D02*
X01987Y01089D01*
X0193Y01089D02*
X01959Y01089D01*
X01902Y01089D02*
X0193Y01089D01*
X01876Y01089D02*
X01902Y01089D01*
X01852Y01088D02*
X01876Y01089D01*
X01832Y01088D02*
X01852Y01088D01*
X01814Y01088D02*
X01832Y01088D01*
X01805Y01088D02*
X01814Y01088D01*
X01797Y01088D02*
X01805D01*
X01783Y0109D02*
X01797Y01088D01*
X01767Y01095D02*
X01783Y0109D01*
X01753Y01104D02*
X01767Y01095D01*
X01742Y01114D02*
X01753Y01104D01*
X01733Y01127D02*
X01742Y01114D01*
X01726Y0114D02*
X01733Y01127D01*
X01722Y01155D02*
X01726Y0114D01*
X01721Y01165D02*
X01722Y01155D01*
X01721Y01165D02*
Y01209D01*
X01715Y0121D02*
X0172Y0121D01*
X017Y01215D02*
X01715Y0121D01*
X01685Y01227D02*
X017Y01215D01*
X01674Y01244D02*
X01685Y01227D01*
X0167Y01259D02*
X01674Y01244D01*
X0167Y01259D02*
Y01407D01*
X01585Y01409D02*
X01669D01*
X01583Y01261D02*
Y01407D01*
X01579Y01246D02*
X01583Y01261D01*
X01567Y01228D02*
X01579Y01246D01*
X0155Y01217D02*
X01567Y01228D01*
X01534Y01212D02*
X0155Y01217D01*
X01522Y01212D02*
X01534D01*
X01521Y01178D02*
Y01211D01*
X01516Y01159D02*
X01521Y01178D01*
X01501Y01138D02*
X01516Y01159D01*
X01481Y01124D02*
X01501Y01138D01*
X01462Y01119D02*
X01481Y01124D01*
X01311Y01119D02*
X01462D01*
X01292Y01124D02*
X01311Y01119D01*
G54D41*
X01278Y01802D02*
X01495D01*
X01278D02*
Y01839D01*
Y01844*
X01282Y0186*
X01293Y01877*
X0131Y01888*
X01326Y01893*
X01331*
X01442*
X01447*
X01463Y01888*
X0148Y01877*
X01491Y0186*
X01495Y01844*
Y01839D02*
Y01844D01*
Y01802D02*
Y01839D01*
X01278Y01211D02*
X01495D01*
Y01198D02*
Y01211D01*
Y01193D02*
Y01198D01*
X01491Y01178D02*
X01495Y01193D01*
X0148Y01161D02*
X01491Y01178D01*
X01463Y01149D02*
X0148Y01161D01*
X01447Y01145D02*
X01463Y01149D01*
X01442Y01145D02*
X01447D01*
X01331D02*
X01442D01*
X01326D02*
X01331D01*
X0131Y01149D02*
X01326Y01145D01*
X01293Y01161D02*
X0131Y01149D01*
X01282Y01178D02*
X01293Y01161D01*
X01278Y01193D02*
X01282Y01178D01*
X01278Y01193D02*
Y01198D01*
Y01211*
X01749Y01211D02*
X02102D01*
Y01119D02*
Y01211D01*
X02099Y01119D02*
X02102Y01119D01*
X0209Y01119D02*
X02099Y01119D01*
X02077Y01119D02*
X0209Y01119D01*
X02059Y01119D02*
X02077Y01119D01*
X02038Y01119D02*
X02059Y01119D01*
X02015Y01119D02*
X02038Y01119D01*
X01989Y01119D02*
X02015Y01119D01*
X01963Y01119D02*
X01989Y01119D01*
X01936Y01119D02*
X01963Y01119D01*
X01909Y01118D02*
X01936Y01119D01*
X01884Y01118D02*
X01909Y01118D01*
X0186Y01118D02*
X01884Y01118D01*
X01839Y01118D02*
X0186Y01118D01*
X01821Y01118D02*
X01839Y01118D01*
X01808Y01118D02*
X01821Y01118D01*
X01801Y01118D02*
X01808Y01118D01*
X01799Y01118D02*
X01801D01*
X01794D02*
X01799D01*
X01777Y01122D02*
X01794Y01118D01*
X01762Y01134D02*
X01777Y01122D01*
X01752Y0115D02*
X01762Y01134D01*
X01749Y01163D02*
X01752Y0115D01*
X01749Y01163D02*
Y01168D01*
Y01172*
Y01184*
Y01198*
Y01208*
Y01211*
Y01811D02*
X02102D01*
X01749D02*
Y01815D01*
Y01825*
Y01839*
Y01851*
Y01855*
Y01859*
X01752Y01873*
X01762Y01889*
X01777Y019*
X01794Y01905*
X01799*
X01801*
X01808Y01905*
X01821Y01904*
X01839Y01904*
X0186Y01904*
X01884Y01904*
X01909Y01904*
X01936Y01904*
X01963Y01904*
X01989Y01904*
X02015Y01904*
X02038Y01904*
X02059Y01903*
X02077Y01903*
X0209Y01903*
X02099Y01903*
X02102Y01903*
Y01811D02*
Y01903D01*
X01669Y01598D02*
Y01744D01*
X01585Y01598D02*
X01669D01*
X01585D02*
Y01746D01*
Y01752*
X0158Y01768D02*
X01585Y01752D01*
X01568Y01786D02*
X0158Y01768D01*
X01551Y01797D02*
X01568Y01786D01*
X01535Y01802D02*
X01551Y01797D01*
X01529Y01802D02*
X01535D01*
X01522D02*
X01529D01*
X01522D02*
Y01853D01*
Y01859*
X01517Y01879D02*
X01522Y01859D01*
X01502Y019D02*
X01517Y01879D01*
X01481Y01914D02*
X01502Y019D01*
X01462Y0192D02*
X01481Y01914D01*
X01455Y0192D02*
X01462D01*
X01318D02*
X01455D01*
X01311D02*
X01318D01*
X01292Y01914D02*
X01311Y0192D01*
X01271Y019D02*
X01292Y01914D01*
X01256Y01879D02*
X01271Y019D01*
X01251Y01859D02*
X01256Y01879D01*
X01251Y01853D02*
Y01859D01*
Y01802D02*
Y01853D01*
X01234Y01802D02*
X01251D01*
X01228D02*
X01234D01*
X01212Y01797D02*
X01228Y01802D01*
X01194Y01786D02*
X01212Y01797D01*
X01183Y01768D02*
X01194Y01786D01*
X01178Y01752D02*
X01183Y01768D01*
X01178Y01746D02*
Y01752D01*
Y01267D02*
Y01746D01*
Y01261D02*
Y01267D01*
Y01261D02*
X01183Y01245D01*
X01194Y01227*
X01212Y01215*
X01228Y01211*
X01234*
X01251*
Y01185D02*
Y01211D01*
Y01178D02*
Y01185D01*
Y01178D02*
X01256Y01159D01*
X01271Y01137*
X01292Y01123*
X01311Y01118*
X01318*
X01455*
X01462*
X01481Y01123*
X01502Y01137*
X01517Y01159*
X01522Y01178*
Y01185*
Y01211*
X01529*
X01535*
X01551Y01215*
X01568Y01227*
X0158Y01245*
X01585Y01261*
Y01267*
Y01409*
X01669*
Y01264D02*
Y01409D01*
Y01259D02*
Y01264D01*
Y01259D02*
X01673Y01243D01*
X01684Y01226*
X017Y01214*
X01715Y01209*
X0172Y01209*
Y01204D02*
Y01209D01*
Y0119D02*
Y01204D01*
Y01174D02*
Y0119D01*
Y01169D02*
Y01174D01*
Y01165D02*
Y01169D01*
Y01165D02*
X01721Y01154D01*
X01725Y0114*
X01732Y01126*
X01741Y01113*
X01752Y01103*
X01766Y01094*
X01783Y01089*
X01797Y01087*
X01802*
X01805*
X01814Y01087*
X01832Y01087*
X01852Y01087*
X01876Y01087*
X01902Y01087*
X0193Y01088*
X01959Y01088*
X01987Y01088*
X02015Y01088*
X02042Y01088*
X02066Y01089*
X02088Y01089*
X02106Y01089*
X0212Y01089*
X02129Y01089*
X02132Y01089*
Y01241*
X01957D02*
X02132D01*
X01957D02*
X01957Y01243D01*
X0196Y01252*
X01962Y01261*
Y01264*
Y01336*
X02287*
Y01443*
Y01585D02*
Y01692D01*
X01962D02*
X02287D01*
X01962D02*
Y01744D01*
Y01746*
X01961Y01754D02*
X01962Y01746D01*
X01958Y01764D02*
X01961Y01754D01*
X01953Y01773D02*
X01958Y01764D01*
X01948Y01779D02*
X01953Y01773D01*
X01947Y01781D02*
X01948Y01779D01*
X01947Y01781D02*
X02132D01*
Y01934*
X02129Y01934D02*
X02132Y01934D01*
X0212Y01934D02*
X02129Y01934D01*
X02106Y01934D02*
X0212Y01934D01*
X02088Y01934D02*
X02106Y01934D01*
X02066Y01934D02*
X02088Y01934D01*
X02042Y01934D02*
X02066Y01934D01*
X02015Y01934D02*
X02042Y01934D01*
X01987Y01935D02*
X02015Y01934D01*
X01959Y01935D02*
X01987Y01935D01*
X0193Y01935D02*
X01959Y01935D01*
X01902Y01935D02*
X0193Y01935D01*
X01876Y01935D02*
X01902Y01935D01*
X01852Y01935D02*
X01876Y01935D01*
X01832Y01936D02*
X01852Y01935D01*
X01814Y01936D02*
X01832Y01936D01*
X01805Y01936D02*
X01814Y01936D01*
X01802Y01936D02*
X01805D01*
X01797D02*
X01802D01*
X01783Y01934D02*
X01797Y01936D01*
X01766Y01928D02*
X01783Y01934D01*
X01752Y0192D02*
X01766Y01928D01*
X01741Y01909D02*
X01752Y0192D01*
X01732Y01897D02*
X01741Y01909D01*
X01725Y01883D02*
X01732Y01897D01*
X01721Y01868D02*
X01725Y01883D01*
X0172Y01857D02*
X01721Y01868D01*
X0172Y01853D02*
Y01857D01*
Y01846D02*
Y01853D01*
Y01824D02*
Y01846D01*
Y01805D02*
Y01824D01*
Y01799D02*
Y01805D01*
X01715Y01799D02*
X0172Y01799D01*
X017Y01793D02*
X01715Y01799D01*
X01684Y01781D02*
X017Y01793D01*
X01673Y01764D02*
X01684Y01781D01*
X01669Y01749D02*
X01673Y01764D01*
X01669Y01744D02*
Y01749D01*
X01962Y01443D02*
X02287D01*
X01962D02*
Y01585D01*
X02287*
X01443Y01698D02*
Y01701D01*
X01441Y01691D02*
X01443Y01698D01*
X01436Y01683D02*
X01441Y01691D01*
X01428Y01677D02*
X01436Y01683D01*
X0142Y01675D02*
X01428Y01677D01*
X01418Y01675D02*
X0142D01*
X01415D02*
X01418D01*
X01408Y01677D02*
X01415Y01675D01*
X014Y01683D02*
X01408Y01677D01*
X01395Y01691D02*
X014Y01683D01*
X01393Y01698D02*
X01395Y01691D01*
X01393Y01698D02*
Y01701D01*
Y01703*
X01395Y0171*
X014Y01718*
X01408Y01724*
X01415Y01726*
X01418*
X0142*
X01428Y01724*
X01436Y01718*
X01441Y0171*
X01443Y01703*
Y01701D02*
Y01703D01*
G54D42*
X01417Y01337D02*
X01419D01*
X01443Y01308D02*
Y01311D01*
X01414Y01285D02*
X01417D01*
X01441Y01321D02*
X01443Y01313D01*
X01417Y01285D02*
X01419D01*
X01443Y01311D02*
Y01313D01*
X01419Y01337D02*
X01427Y01335D01*
X01436Y01292D02*
X01441Y01301D01*
X01436Y0133D02*
X01441Y01321D01*
X01427Y01335D02*
X01436Y0133D01*
X01441Y01301D02*
X01443Y01308D01*
X01427Y01287D02*
X01436Y01292D01*
X01414Y01337D02*
X01417D01*
X01419Y01285D02*
X01427Y01287D01*
X01391Y01311D02*
Y01313D01*
X01393Y01321D02*
X01398Y0133D01*
X01407Y01335*
X01391Y01313D02*
X01393Y01321D01*
Y01301D02*
X01398Y01292D01*
X01407Y01287D02*
X01414Y01285D01*
X01391Y01308D02*
X01393Y01301D01*
X01407Y01335D02*
X01414Y01337D01*
X01398Y01292D02*
X01407Y01287D01*
X01391Y01308D02*
Y01311D01*
G54D43*
X02155Y0128D02*
Y01335D01*
Y0128D02*
X0261D01*
Y0175*
X02155D02*
X0261D01*
X02155Y01695D02*
Y0175D01*
M02*