%FSTAX23Y23*%
%MOIN*%
%SFA1B1*%

%IPPOS*%
%ADD15C,0.002700*%
%ADD33C,0.015000*%
%ADD35O,0.086610X0.047240*%
%ADD36O,0.047240X0.086610*%
%ADD37C,0.060000*%
%ADD38C,0.024410*%
%ADD39R,0.088230X0.080610*%
%LNusb-1*%
%LPD*%
G36*
X01814Y01933D02*
X01832Y01933D01*
X01852Y01933*
X01876Y01933*
X01902Y01932*
X0193Y01932*
X01959Y01932*
X01987Y01932*
X02015Y01932*
X02042Y01931*
X02066Y01931*
X02088Y01931*
X02106Y01931*
X0212Y01931*
X02129Y01931*
X02129Y01788*
X02126Y01784*
X01948*
X01947*
X01946Y01784*
X01945Y01783*
X01945*
X01944Y01782*
X01944Y0178*
Y0178*
X01945Y01779*
X01945Y01779*
X01948Y01776*
X01951Y01772*
X01955Y01763*
X01958Y01754*
X01959Y01746*
Y01692*
X01959Y01691*
X01959Y0169*
X0196Y01689*
X01961Y01689*
X01962Y01689*
X02154*
X02154*
X02154Y01689*
X02154Y01689*
X02155Y01689*
X02155Y01689*
X02158Y01692*
X02158Y01692*
X02158Y01693*
X02158Y01694*
X02158Y01694*
X02158Y01694*
Y01746*
X02606*
Y01283*
X02158*
Y01335*
X02158Y01335*
X02158Y01335*
X02158Y01336*
X02158Y01336*
X02158Y01336*
X02155Y01339*
X02155Y01339*
X02155Y01339*
X02155Y01339*
X02154Y01339*
X02154Y01339*
X01966*
X01964Y01344*
X02014Y01393*
X02068*
X02069Y01392*
X02077Y01389*
X02086*
X02094Y01392*
X021Y01399*
X02103Y01407*
Y01416*
X021Y01424*
X02094Y0143*
X02086Y01433*
X02077*
X02069Y0143*
X02068Y01429*
X02006*
X01999Y01428*
X01994Y01424*
X01936Y01366*
X0193Y01368*
X01928Y01372*
X01922Y01378*
X01914Y01382*
X0191*
X01902Y01389*
X01897Y01393*
X0189Y01395*
X01859*
Y0146*
X0175*
Y01359*
X01836*
X01837Y01359*
X01882*
X01888Y01353*
X01891Y01347*
X01897Y01341*
X01897Y01341*
X01898Y01335*
X01896Y01332*
X01892Y01324*
Y01315*
X01896Y01307*
X01902Y01301*
X0191Y01297*
X01919*
X01927Y01301*
X01933Y01307*
X01937Y01315*
Y01316*
X01954Y01334*
X01959Y01332*
Y01261*
X01958Y01253*
X01955Y01244*
X01954Y01242*
X01954Y01242*
X01954Y0124*
X01955Y01239*
X01956Y01239*
X01957Y01239*
X01957*
X02129*
Y01092*
X0212Y01092*
X02106Y01092*
X02088Y01091*
X02066Y01091*
X02042Y01091*
X02015Y01091*
X01987Y01091*
X01959Y01091*
X0193Y0109*
X01902Y0109*
X01876Y0109*
X01852Y0109*
X01832Y0109*
X01814Y0109*
X01805Y0109*
X01797*
X01784Y01092*
X01767Y01097*
X01754Y01105*
X01743Y01115*
X01734Y01127*
X01728Y01141*
X01724Y01155*
X01722Y01166*
Y01207*
Y01209*
X01722Y01209*
X01722Y0121*
X01721Y01211*
Y01211*
X0172Y01211*
X0172Y01211*
X01715Y01212*
X01701Y01217*
X01686Y01228*
X01675Y01244*
X01672Y01259*
Y01406*
Y01407*
X01672Y01407*
X01671Y01408*
X01671Y01408*
X01671Y01408*
X01671Y01408*
X0167Y0141*
X0167Y0141*
X01669Y0141*
X01669Y0141*
X01669Y0141*
X01669Y0141*
X01667*
X01589*
X01585*
X01585Y0141*
X01584Y0141*
X01584Y0141*
X01584*
X01584Y0141*
X01584Y0141*
X01584Y0141*
X01582Y01408*
X01582Y01408*
X01582Y01408*
X01582Y01408*
X01582Y01408*
X01582Y01407*
X01582Y01407*
Y01405*
Y01262*
X01578Y01246*
X01566Y01229*
X0155Y01218*
X01534Y01214*
X01523*
X01522*
X01521Y01214*
X01521Y01213*
X0152Y01213*
Y01213*
X01519Y01212*
X01519Y01211*
X01519*
Y0121*
Y01178*
X01514Y0116*
X01501Y01139*
X0148Y01126*
X01461Y01121*
X01312*
X01293Y01126*
X01273Y01139*
X01259Y0116*
X01254Y01178*
Y0121*
Y01211*
X01254Y01212*
X01253Y01213*
X01253Y01213*
X01252Y01214*
X01251Y01214*
X01251*
X0125*
X01229*
X01218Y01217*
X01219Y01222*
X0123*
Y01256*
Y01289*
X01215*
X01206Y01288*
X01198Y01285*
X01191Y0128*
X01186Y01273*
X01184Y01273*
X01181Y01275*
Y01741*
X01184Y01742*
X01186Y01742*
X01191Y01736*
X01198Y0173*
X01206Y01727*
X01215Y01726*
X0123*
Y0176*
X01235*
Y01765*
X01287*
X01287Y01768*
X01284Y01776*
X01278Y01783*
X01275Y01786*
X01275Y01787*
X01279Y01791*
X0145*
X01452Y01786*
X01449Y01783*
X01443Y01776*
X0144Y01768*
X01439Y01765*
X01545*
X01545Y01768*
X01541Y01776*
X01536Y01783*
X01529Y01789*
X01521Y01792*
X01512Y01793*
X01508*
X01507Y01795*
X01505Y01798*
X01506Y01801*
Y01843*
X01506Y01845*
X01505Y01846*
X01501Y01862*
X015Y01863*
X015Y01865*
X01488Y01882*
X01487Y01883*
X01486Y01884*
X01469Y01896*
X01467Y01896*
X01466Y01897*
X0145Y01901*
X01449Y01901*
X01447Y01902*
X01327*
X01326Y01901*
X01324Y01901*
X01309Y01897*
X01307Y01896*
X01306Y01896*
X01289Y01884*
X01287Y01883*
X01286Y01882*
X01275Y01865*
X01274Y01863*
X01273Y01862*
X01269Y01846*
X01269Y01845*
X01269Y01843*
Y01801*
X01269Y01797*
X01272Y01794*
X01269Y0179*
X01263Y01792*
X01254Y01793*
X01232*
X0123Y01798*
X01231Y01799*
X01251*
X01252Y01799*
X01253Y018*
X01253Y018*
X01254Y01801*
X01254Y01802*
Y01859*
X01259Y01878*
X01273Y01898*
X01293Y01912*
X01312Y01917*
X01461*
X0148Y01912*
X01501Y01898*
X01514Y01878*
X01519Y01859*
Y01802*
X01519Y01801*
X0152Y018*
X0152Y018*
X01521Y01799*
X01522Y01799*
X01534*
X0155Y01795*
X01566Y01784*
X01578Y01767*
X01582Y01751*
Y01599*
X01582Y01599*
X01582Y01599*
X01582Y01599*
X01582Y01598*
X01582Y01598*
X01584Y01597*
X01584Y01597*
X01584Y01597*
X01584Y01597*
X01585Y01596*
X01585*
X01669*
X01669*
X01669Y01597*
X01669Y01597*
X0167Y01597*
X0167Y01597*
X01671Y01598*
X01671Y01598*
X01671Y01599*
X01672Y01599*
X01672Y01599*
Y01599*
Y01748*
X01675Y01763*
X01686Y01779*
X01701Y01791*
X01715Y01796*
X0172Y01796*
X0172Y01796*
X01721Y01797*
X01722Y01798*
X01722Y01798*
X01722Y01799*
Y01857*
X01724Y01868*
X01728Y01882*
X01734Y01895*
X01743Y01907*
X01754Y01918*
X01767Y01926*
X01784Y01931*
X01797Y01933*
X01805*
X01814Y01933*
G37*
%LNusb-2*%
%LPC*%
G36*
X018Y01914D02*
X01792D01*
X01791Y01913*
X01789Y01913*
X01773Y01909*
X01772Y01908*
X0177Y01907*
X01755Y01896*
X01754Y01896*
X01754Y01896*
X01753Y01894*
X01752Y01893*
X01752Y01893*
X01752Y01893*
X01742Y01877*
X01742Y01875*
X01741Y01874*
X01738Y01861*
X01738Y01859*
X01738Y01858*
Y0181*
X01739Y01806*
X01741Y01803*
X01744Y01801*
X01748Y018*
X02099*
X02103Y01801*
X02106Y01803*
X02108Y01806*
X02109Y0181*
Y01902*
X02108Y01904*
X02108Y01906*
X02108Y01906*
X02108Y01906*
X02107Y01908*
X02106Y01909*
X02106Y01909*
X02106Y01909*
X02104Y0191*
X02103Y01911*
X02103*
X02103Y01911*
X02101Y01912*
X02099Y01912*
X02096Y01912*
X02087Y01912*
X02074Y01912*
X02074*
X02056Y01912*
X02035Y01913*
X02012Y01913*
Y01913*
Y01913*
X01987Y01913*
X0196Y01913*
X01933Y01913*
X01907Y01913*
X01882Y01913*
X01858Y01913*
X01837Y01913*
X0182Y01913*
X0182*
X01806Y01914*
X018Y01914*
X018*
X018*
G37*
G36*
X01762Y01776D02*
Y01759D01*
X01779*
X01776Y01767*
X0177Y01773*
X01762Y01776*
G37*
G36*
X01752D02*
X01744Y01773D01*
X01738Y01767*
X01735Y01759*
X01752*
Y01776*
G37*
G36*
X01779Y01749D02*
X01762D01*
Y01732*
X0177Y01735*
X01776Y01742*
X01779Y01749*
G37*
G36*
X01752D02*
X01735D01*
X01738Y01742*
X01744Y01735*
X01752Y01732*
Y01749*
G37*
G36*
X01487Y01755D02*
X01439D01*
X0144Y01751*
X01443Y01743*
X01449Y01736*
X01456Y0173*
X01464Y01727*
X01473Y01726*
X01487*
Y01755*
G37*
G36*
X01287D02*
X0124D01*
Y01726*
X01254*
X01263Y01727*
X01271Y0173*
X01278Y01736*
X01284Y01743*
X01287Y01751*
X01287Y01755*
G37*
G36*
X01724Y0169D02*
Y01673D01*
X01741*
X01738Y01681*
X01732Y01687*
X01724Y0169*
G37*
G36*
X01714D02*
X01707Y01687D01*
X017Y01681*
X01697Y01673*
X01714*
Y0169*
G37*
G36*
X01741Y01663D02*
X01724D01*
Y01646*
X01732Y0165*
X01738Y01656*
X01741Y01663*
G37*
G36*
X01714D02*
X01697D01*
X017Y01656*
X01707Y0165*
X01714Y01646*
Y01663*
G37*
G36*
X01859Y01664D02*
X0181D01*
Y01619*
X01859*
Y01664*
G37*
G36*
X01772Y01664D02*
X0177Y01664D01*
X0175*
Y01619*
X018*
Y01664*
X01773*
X01772Y01664*
G37*
G36*
X01859Y01609D02*
X0181D01*
Y01563*
X01859*
Y01609*
G37*
G36*
X018D02*
X0175D01*
Y01563*
X018*
Y01609*
G37*
G36*
X02155Y01396D02*
Y0138D01*
X02171*
X02168Y01387*
X02162Y01393*
X02155Y01396*
G37*
G36*
X02145D02*
X02137Y01393D01*
X02131Y01387*
X02128Y0138*
X02145*
Y01396*
G37*
G36*
X01719Y01385D02*
Y01368D01*
X01736*
X01733Y01376*
X01727Y01382*
X01719Y01385*
G37*
G36*
X01709D02*
X01702Y01382D01*
X01695Y01376*
X01692Y01368*
X01709*
Y01385*
G37*
G36*
X02171Y0137D02*
X02155D01*
Y01353*
X02162Y01356*
X02168Y01362*
X02171Y0137*
G37*
G36*
X02145D02*
X02128D01*
X02131Y01362*
X02137Y01356*
X02145Y01353*
Y0137*
G37*
G36*
X01545Y01755D02*
X01497D01*
Y01726*
X01505*
X01507Y01721*
X01504Y01719*
X01498Y01712*
X01495Y01703*
X01494Y01695*
Y01655*
X01495Y01646*
X01498Y01638*
X01504Y01631*
X01511Y01626*
X01512Y01625*
X01511Y0162*
X01503Y01616*
X01496Y01608*
X01491Y01599*
X01488Y01589*
Y01578*
X01491Y01568*
X01496Y01559*
X01503Y01552*
X01509Y01548*
Y01543*
X01503Y0154*
X01496Y01532*
X01491Y01523*
X01488Y01513*
Y01502*
X01491Y01492*
X01496Y01483*
X01503Y01476*
X01509Y01472*
Y01467*
X01503Y01464*
X01496Y01456*
X01491Y01447*
X01488Y01437*
Y01426*
X01491Y01416*
X01496Y01407*
X01503Y014*
X01511Y01395*
X01512Y0139*
X01511Y01389*
X01504Y01384*
X01498Y01377*
X01495Y01369*
X01494Y0136*
Y01345*
X01528*
X01562*
Y0136*
X01561Y01369*
X01557Y01377*
X01552Y01384*
X01545Y01389*
X01544Y0139*
X01544Y01395*
X01552Y014*
X0156Y01407*
X01565Y01416*
X01568Y01426*
Y01437*
X01565Y01447*
X0156Y01456*
X01552Y01464*
X01547Y01467*
Y01472*
X01552Y01476*
X0156Y01483*
X01565Y01492*
X01568Y01502*
Y01513*
X01565Y01523*
X0156Y01532*
X01552Y0154*
X01547Y01543*
Y01548*
X01552Y01552*
X0156Y01559*
X01565Y01568*
X01568Y01578*
Y01589*
X01565Y01599*
X0156Y01608*
X01552Y01616*
X01544Y0162*
X01544Y01625*
X01545Y01626*
X01552Y01631*
X01557Y01638*
X01561Y01646*
X01562Y01655*
Y01695*
X01561Y01703*
X01557Y01712*
X01552Y01719*
X01545Y01724*
X01537Y01727*
X01534Y01728*
X01533Y01733*
X01536Y01736*
X01541Y01743*
X01545Y01751*
X01545Y01755*
G37*
G36*
X01736Y01358D02*
X01719D01*
Y01341*
X01727Y01344*
X01733Y01351*
X01736Y01358*
G37*
G36*
X01709D02*
X01692D01*
X01695Y01351*
X01702Y01344*
X01709Y01341*
Y01358*
G37*
G36*
X0177Y01283D02*
Y01266D01*
X01786*
X01783Y01274*
X01777Y0128*
X0177Y01283*
G37*
G36*
X0176D02*
X01752Y0128D01*
X01746Y01274*
X01743Y01266*
X0176*
Y01283*
G37*
G36*
X01562Y01335D02*
X01528D01*
X01494*
Y01321*
X01495Y01312*
X01498Y01304*
X01504Y01297*
X01507Y01294*
X01505Y01289*
X01497*
Y01261*
X01545*
X01545Y01264*
X01541Y01273*
X01536Y0128*
X01533Y01282*
X01534Y01287*
X01537Y01288*
X01545Y01291*
X01552Y01297*
X01557Y01304*
X01561Y01312*
X01562Y01321*
Y01335*
G37*
G36*
X01487Y01289D02*
X01473D01*
X01464Y01288*
X01456Y01285*
X01449Y0128*
X01443Y01273*
X0144Y01264*
X01439Y01261*
X01487*
Y01289*
G37*
G36*
X01254D02*
X0124D01*
Y01261*
X01287*
X01287Y01264*
X01284Y01273*
X01278Y0128*
X01271Y01285*
X01263Y01288*
X01254Y01289*
G37*
G36*
X01786Y01256D02*
X0177D01*
Y01239*
X01777Y01242*
X01783Y01249*
X01786Y01256*
G37*
G36*
X0176D02*
X01743D01*
X01746Y01249*
X01752Y01242*
X0176Y01239*
Y01256*
G37*
G36*
X01545Y01251D02*
X01439D01*
X0144Y01247*
X01443Y01239*
X01449Y01232*
X01453Y01229*
X01451Y01224*
X01279*
X01275Y01223*
X01272Y01227*
X01278Y01232*
X01284Y01239*
X01287Y01247*
X01287Y01251*
X0124*
Y01222*
X01254*
X01263Y01223*
X01271Y01226*
X01273Y01222*
X01272Y01221*
X01269Y01217*
X01269Y01213*
Y01196*
X01269Y01194*
X01269Y01193*
X01273Y01178*
X01274Y01176*
X01275Y01175*
X01286Y01158*
X01287Y01156*
X01289Y01155*
X01306Y01143*
X01307Y01143*
X01309Y01142*
X01324Y01138*
X01326Y01138*
X01327Y01137*
X01447*
X01449Y01138*
X0145Y01138*
X01466Y01142*
X01467Y01143*
X01469Y01143*
X01486Y01155*
X01487Y01156*
X01488Y01158*
X015Y01175*
X015Y01176*
X01501Y01178*
X01505Y01193*
X01506Y01194*
X01506Y01196*
Y01213*
X01505Y01217*
X01506Y01219*
X01508Y01222*
X01512*
X01521Y01223*
X01529Y01226*
X01536Y01232*
X01541Y01239*
X01545Y01247*
X01545Y01251*
G37*
G36*
X02099Y01224D02*
X01748D01*
X01744Y01223*
X01741Y01221*
X01739Y01218*
X01738Y01214*
Y01166*
X01738Y01165*
X01738Y01164*
X01741Y0115*
X01742Y01149*
X01742Y01148*
X01752Y01132*
X01752Y01132*
X01752Y01132*
X01753Y0113*
X01754Y01129*
X01754Y01129*
X01755Y01129*
X0177Y01117*
X01772Y01116*
X01773Y01116*
X01789Y01111*
X01791Y01111*
X01792Y01111*
X018*
X018*
X01806Y01111*
X01806*
X01806*
X0182Y01111*
X0182*
X01837Y01111*
X01858Y01111*
X01882Y01111*
X01907Y01111*
X01933Y01111*
X01933*
X0196Y01111*
X01987Y01112*
X02012Y01112*
X02035Y01112*
X02056Y01112*
X02056*
X02074Y01112*
X02074*
X02087Y01112*
X02096Y01112*
X02096Y01112*
X02096Y01112*
X02099Y01112*
X02101Y01112*
X02103Y01113*
X02103Y01113*
X02103Y01113*
X02104Y01114*
X02106Y01115*
X02106Y01115*
X02106Y01115*
X02107Y01117*
X02108Y01118*
X02108Y01118*
X02108Y01118*
X02108Y0112*
X02109Y01122*
Y01214*
X02108Y01218*
X02106Y01221*
X02103Y01223*
X02099Y01224*
G37*
%LNusb-3*%
%LPD*%
G54D15*
X01252Y01211D02*
D01*
D01*
G75*
G03X01251Y01212I-00001J0D01*
G74*G01*
Y018D02*
D01*
D01*
G75*
G03X01252Y01802I0J00001D01*
G74*G01*
X01521D02*
D01*
D01*
G75*
G03X01522Y018I00001J0D01*
G74*G01*
X0172Y01798D02*
D01*
D01*
G75*
G03X01721Y01799I-0J00001D01*
G74*G01*
X01947Y01783D02*
D01*
D01*
G75*
G03X01946Y0178I0J-00001D01*
G74*G01*
X0196Y01692D02*
D01*
D01*
G75*
G03X01962Y0169I00001J0D01*
G74*G01*
X02157Y01693D02*
D01*
D01*
G75*
G03X02157Y01695I-00002J00001D01*
G74*G01*
Y01335D02*
D01*
D01*
G75*
G03X02157Y01335I-00002J0D01*
G74*G01*
X01962Y01338D02*
D01*
D01*
G75*
G03X0196Y01336I0J-00001D01*
G74*G01*
X01955Y01242D02*
D01*
D01*
G75*
G03X01957Y0124I00001J-0D01*
G74*G01*
X01721Y01209D02*
D01*
D01*
G75*
G03X0172Y0121I-00001J-0D01*
G74*G01*
X01522Y01212D02*
D01*
D01*
G75*
G03X01521Y01211I0J-00001D01*
G74*G01*
X01583Y01599D02*
X01585Y01598D01*
X01669D02*
X0167Y01599D01*
X01583Y01407D02*
X01585Y01409D01*
X01669D02*
X0167Y01407D01*
X02154Y0169D02*
X02157Y01693D01*
X01962Y0169D02*
X02154D01*
X02154Y01338D02*
X02157Y01335D01*
X02157Y01335D02*
Y01335D01*
X01962Y01338D02*
X02154D01*
X01776Y01125D02*
X01792Y01121D01*
X01761Y01137D02*
X01776Y01125D01*
X01751Y01153D02*
X01761Y01137D01*
X01748Y01166D02*
X01751Y01153D01*
X01748Y01166D02*
Y01214D01*
X02099*
Y01122D02*
Y01214D01*
X02096Y01122D02*
X02099Y01122D01*
X02087Y01122D02*
X02096Y01122D01*
X02074Y01122D02*
X02087Y01122D01*
X02056Y01122D02*
X02074Y01122D01*
X02035Y01122D02*
X02056Y01122D01*
X02012Y01122D02*
X02035Y01122D01*
X01987Y01122D02*
X02012Y01122D01*
X0196Y01122D02*
X01987Y01122D01*
X01933Y01122D02*
X0196Y01122D01*
X01907Y01121D02*
X01933Y01122D01*
X01882Y01121D02*
X01907Y01121D01*
X01858Y01121D02*
X01882Y01121D01*
X01837Y01121D02*
X01858Y01121D01*
X0182Y01121D02*
X01837Y01121D01*
X01806Y01121D02*
X0182Y01121D01*
X018Y01121D02*
X01806Y01121D01*
X01792Y01121D02*
X018D01*
X01295Y01163D02*
X01311Y01152D01*
X01327Y01148*
X01447*
X01463Y01152*
X0148Y01163*
X01491Y0118*
X01496Y01196*
Y01213*
X01279D02*
X01496D01*
X01279Y01196D02*
Y01213D01*
Y01196D02*
X01283Y0118D01*
X01295Y01163*
X01279Y01801D02*
X01496D01*
Y01843*
X01491Y01859D02*
X01496Y01843D01*
X0148Y01876D02*
X01491Y01859D01*
X01463Y01887D02*
X0148Y01876D01*
X01447Y01891D02*
X01463Y01887D01*
X01327Y01891D02*
X01447D01*
X01311Y01887D02*
X01327Y01891D01*
X01295Y01876D02*
X01311Y01887D01*
X01283Y01859D02*
X01295Y01876D01*
X01279Y01843D02*
X01283Y01859D01*
X01279Y01801D02*
Y01843D01*
X01748Y0181D02*
X02099D01*
Y01902*
X02096Y01902D02*
X02099Y01902D01*
X02087Y01902D02*
X02096Y01902D01*
X02074Y01902D02*
X02087Y01902D01*
X02056Y01902D02*
X02074Y01902D01*
X02035Y01902D02*
X02056Y01902D01*
X02012Y01902D02*
X02035Y01902D01*
X01987Y01903D02*
X02012Y01902D01*
X0196Y01903D02*
X01987Y01903D01*
X01933Y01903D02*
X0196Y01903D01*
X01907Y01903D02*
X01933Y01903D01*
X01882Y01903D02*
X01907Y01903D01*
X01858Y01903D02*
X01882Y01903D01*
X01837Y01903D02*
X01858Y01903D01*
X0182Y01903D02*
X01837Y01903D01*
X01806Y01903D02*
X0182Y01903D01*
X018Y01903D02*
X01806Y01903D01*
X01792Y01903D02*
X018D01*
X01776Y01899D02*
X01792Y01903D01*
X01761Y01887D02*
X01776Y01899D01*
X01751Y01872D02*
X01761Y01887D01*
X01748Y01858D02*
X01751Y01872D01*
X01748Y0181D02*
Y01858D01*
X01272Y01138D02*
X01292Y01124D01*
X01258Y01159D02*
X01272Y01138D01*
X01252Y01178D02*
X01258Y01159D01*
X01252Y01178D02*
Y01211D01*
X01229Y01212D02*
X01251D01*
X01213Y01217D02*
X01229Y01212D01*
X01195Y01228D02*
X01213Y01217D01*
X01184Y01246D02*
X01195Y01228D01*
X0118Y01261D02*
X01184Y01246D01*
X0118Y01261D02*
Y01752D01*
X01184Y01767*
X01195Y01785*
X01213Y01796*
X01229Y018*
X01251*
X01252Y01802D02*
Y01859D01*
X01258Y01878*
X01272Y01899*
X01292Y01913*
X01311Y01918*
X01462*
X01481Y01913*
X01501Y01899*
X01516Y01878*
X01521Y01859*
Y01802D02*
Y01859D01*
X01522Y018D02*
X01534D01*
X0155Y01796*
X01567Y01785*
X01579Y01767*
X01583Y01752*
Y01599D02*
Y01752D01*
X01585Y01598D02*
X01669D01*
X0167Y01599D02*
Y01749D01*
X01674Y01764*
X01685Y0178*
X017Y01792*
X01715Y01797*
X0172Y01798*
X01721Y01799D02*
Y01857D01*
X01722Y01868*
X01726Y01882*
X01733Y01896*
X01742Y01908*
X01753Y01919*
X01767Y01927*
X01783Y01932*
X01797Y01934*
X01805*
X01814Y01934*
X01832Y01934*
X01852Y01934*
X01876Y01934*
X01902Y01934*
X0193Y01934*
X01959Y01933*
X01987Y01933*
X02015Y01933*
X02042Y01933*
X02066Y01933*
X02088Y01932*
X02106Y01932*
X0212Y01932*
X02129Y01932*
X02131Y01932*
Y01783D02*
Y01932D01*
X01947Y01783D02*
X02131D01*
X01946Y0178D02*
X01947Y01779D01*
X01952Y01773*
X01956Y01764*
X01959Y01754*
X0196Y01746*
Y01692D02*
Y01746D01*
X02157Y01695D02*
Y01747D01*
X02607*
Y01282D02*
Y01747D01*
X02157Y01282D02*
X02607D01*
X02157D02*
Y01335D01*
X0196Y01261D02*
Y01336D01*
X01959Y01252D02*
X0196Y01261D01*
X01956Y01243D02*
X01959Y01252D01*
X01955Y01242D02*
X01956Y01243D01*
X01957Y0124D02*
X02131D01*
Y0109D02*
Y0124D01*
X02129Y0109D02*
X02131Y0109D01*
X0212Y0109D02*
X02129Y0109D01*
X02106Y0109D02*
X0212Y0109D01*
X02088Y0109D02*
X02106Y0109D01*
X02066Y0109D02*
X02088Y0109D01*
X02042Y0109D02*
X02066Y0109D01*
X02015Y0109D02*
X02042Y0109D01*
X01987Y01089D02*
X02015Y0109D01*
X01959Y01089D02*
X01987Y01089D01*
X0193Y01089D02*
X01959Y01089D01*
X01902Y01089D02*
X0193Y01089D01*
X01876Y01089D02*
X01902Y01089D01*
X01852Y01088D02*
X01876Y01089D01*
X01832Y01088D02*
X01852Y01088D01*
X01814Y01088D02*
X01832Y01088D01*
X01805Y01088D02*
X01814Y01088D01*
X01797Y01088D02*
X01805D01*
X01783Y0109D02*
X01797Y01088D01*
X01767Y01095D02*
X01783Y0109D01*
X01753Y01104D02*
X01767Y01095D01*
X01742Y01114D02*
X01753Y01104D01*
X01733Y01127D02*
X01742Y01114D01*
X01726Y0114D02*
X01733Y01127D01*
X01722Y01155D02*
X01726Y0114D01*
X01721Y01165D02*
X01722Y01155D01*
X01721Y01165D02*
Y01209D01*
X01715Y0121D02*
X0172Y0121D01*
X017Y01215D02*
X01715Y0121D01*
X01685Y01227D02*
X017Y01215D01*
X01674Y01244D02*
X01685Y01227D01*
X0167Y01259D02*
X01674Y01244D01*
X0167Y01259D02*
Y01407D01*
X01585Y01409D02*
X01669D01*
X01583Y01261D02*
Y01407D01*
X01579Y01246D02*
X01583Y01261D01*
X01567Y01228D02*
X01579Y01246D01*
X0155Y01217D02*
X01567Y01228D01*
X01534Y01212D02*
X0155Y01217D01*
X01522Y01212D02*
X01534D01*
X01521Y01178D02*
Y01211D01*
X01516Y01159D02*
X01521Y01178D01*
X01501Y01138D02*
X01516Y01159D01*
X01481Y01124D02*
X01501Y01138D01*
X01462Y01119D02*
X01481Y01124D01*
X01311Y01119D02*
X01462D01*
X01292Y01124D02*
X01311Y01119D01*
G54D33*
X02006Y01411D02*
X02081D01*
X01915Y0132D02*
X02006Y01411D01*
X01837Y01377D02*
X0189D01*
X01907Y0136*
X01805Y0141D02*
X01837Y01377D01*
X01907Y0136D02*
X0191D01*
X01772Y01646D02*
X01805Y01614D01*
G54D35*
X01235Y01256D03*
Y0176D03*
X01492Y01256D03*
Y0176D03*
G54D36*
X01528Y0134D03*
Y01675D03*
G54D37*
X01528Y01432D03*
Y01508D03*
Y01584D03*
G54D38*
X01719Y01668D03*
X01757Y01754D03*
X0215Y01375D03*
X0191Y0136D03*
X01714Y01363D03*
X01765Y01261D03*
X02081Y01411D03*
X01915Y0132D03*
G54D39*
X01805Y01614D03*
Y0141D03*
M02*